<?xml version="1.0" encoding="utf-8"?>
<!-- Generator: Adobe Illustrator 27.0.0, SVG Export Plug-In . SVG Version: 6.00 Build 0)  -->
<svg version="1.1" xmlns="http://www.w3.org/2000/svg" xmlns:xlink="http://www.w3.org/1999/xlink" x="0px" y="0px"
	 viewBox="0 0 500 500" style="enable-background:new 0 0 500 500;" xml:space="preserve">
<style type="text/css">
	.st0{fill:#FFFFFF;}
	.st1{fill:#C2EDE4;}
	.st2{fill:#8BC4F0;}
	.st3{fill:#520025;}
	.st4{fill:#FFD27A;}
	.st5{opacity:0.5;}
	.st6{fill:#FF3B3B;}
	.st7{font-family:'Montserrat-Medium';}
	.st8{font-size:16.4425px;}
	.st9{fill:#FFA080;}
	.st10{fill:#467CA6;}
	.st11{fill:none;stroke:#FFFFFF;stroke-linecap:round;stroke-linejoin:round;}
	.st12{fill:#9EB7C7;}
</style>
<g id="BACKGROUND">
	<rect class="st0" width="500" height="500"/>
	<path class="st1" d="M130.19,446.1h257.65c10.19-23.7,14.27-50.24,18.06-76.03c3.04-20.66,6.07-41.33,9.11-61.99
		c5.37-36.52,10.75-73.27,9.74-110.17c-1.01-36.9-8.76-74.34-27.96-105.86C386.63,75.4,372.53,60.04,354,53.92
		c-31.22-10.3-65.33,8.75-86.16,34.18c-20.83,25.43-32.86,56.86-51.22,84.13c-21.95,32.6-53.07,58.96-88.84,75.24
		c-25.57,11.63-56.73,21.36-66.37,47.75c-3.08,8.42-3.42,17.61-2.72,26.54C62.5,370.52,95.05,411.46,130.19,446.1z"/>
	<g>
		<g>
			<g>
				<path class="st2" d="M348.49,436c1.54-26.56,10.97-116.08,68.25-148.62c2.66-1.51,6,0.16,6.39,3.19
					c2.95,23.13,7.79,106.87-68.26,149.43C351.91,441.65,348.29,439.38,348.49,436z"/>
				<g>
					<path class="st3" d="M352.86,428.19c-0.08,0-0.15-0.02-0.22-0.05c-0.25-0.12-0.35-0.42-0.22-0.67
						c0.61-1.21,61.04-121.13,65.97-135.27c0.09-0.26,0.38-0.4,0.64-0.31c0.26,0.09,0.4,0.38,0.31,0.64
						c-4.95,14.2-65.42,134.18-66.03,135.39C353.22,428.09,353.04,428.19,352.86,428.19z"/>
				</g>
			</g>
			<g>
				<g>
					<path class="st4" d="M353.76,446.05c0,0-2.49-4.08-3.56-11.3c-0.04-0.34-0.09-0.7-0.14-1.06
						c-1.53-12.48,1.38-33.49,26.63-58.74c12.64-12.64,21.36-23.19,27.63-31.6c0.1-0.14,0.21-0.28,0.3-0.42
						c13.88-18.71,15.53-26.63,21.41-23.16C434.58,324.83,433.41,465.48,353.76,446.05z"/>
				</g>
				<g>
					<g>
						<path class="st3" d="M412.46,364.36c-0.09,0.19-0.18,0.38-0.27,0.58c-1.42,3.07-2.95,6.26-4.61,9.57
							c-0.23,0.47-0.47,0.94-0.71,1.42c-0.2,0.39-0.4,0.79-0.6,1.19c-0.18,0.36-0.37,0.72-0.55,1.08c-0.03,0.06-0.07,0.13-0.1,0.19
							c-3.94,7.68-8.58,14.91-13.87,21.6c-0.04,0.06-0.08,0.12-0.14,0.18c-0.62,0.8-1.27,1.59-1.93,2.38
							c-0.11,0.15-0.24,0.3-0.37,0.45c-1.12,1.34-2.27,2.66-3.45,3.96c-0.31,0.35-0.63,0.69-0.95,1.03c0,0,0,0-0.01,0
							c-6.31,6.82-13.35,12.97-21.02,18.34c-0.34,0.24-0.67,0.47-1.01,0.7c-3.65,2.52-7.44,4.85-11.37,7.01l-1.3,0.71
							c-0.04-0.34-0.09-0.7-0.14-1.06l0.96-0.53c14.49-7.96,27.2-18.43,37.62-30.91c0.29-0.35,0.58-0.7,0.86-1.05
							c0.47-0.55,0.92-1.12,1.36-1.68c0.44-0.56,0.88-1.12,1.31-1.69c4.77-6.23,9-12.93,12.63-20.01c0.01-0.02,0.02-0.05,0.03-0.07
							c2.44-4.77,4.65-9.32,6.63-13.64v-0.01c0.31-0.67,0.61-1.34,0.9-1.99c7.76-17.3,11.64-30.76,11.33-39.41
							c-0.01-0.27,0.21-0.5,0.48-0.51c0.28-0.02,0.51,0.2,0.52,0.48C425.02,331.91,420.91,345.9,412.46,364.36z"/>
					</g>
					<g>
						<path class="st3" d="M411.94,365.02c-0.02,0-0.03,0-0.05,0c-0.27-0.03-0.48-0.27-0.45-0.55c0.6-6.03-6.99-20.7-7.07-20.84
							c-0.13-0.25-0.03-0.55,0.21-0.67c0.25-0.13,0.55-0.03,0.67,0.21c0.32,0.61,7.81,15.08,7.18,21.41
							C412.41,364.83,412.19,365.02,411.94,365.02z"/>
					</g>
					<g>
						<path class="st3" d="M406.57,376.02c-0.19,0-0.37-0.1-0.45-0.28c-0.12-0.25-0.01-0.55,0.23-0.67
							c0.52-0.25,12.72-6.05,20.42-4.92c0.27,0.04,0.46,0.29,0.42,0.57c-0.04,0.27-0.29,0.46-0.57,0.42
							c-7.37-1.09-19.71,4.77-19.83,4.83C406.71,376.01,406.64,376.02,406.57,376.02z"/>
					</g>
					<g>
						<path class="st3" d="M405.28,378.48c-0.21,0-0.4-0.13-0.47-0.33c-0.09-0.26,0.04-0.55,0.31-0.64
							c0.61-0.21,14.99-5.24,21.31-3.85c0.27,0.06,0.44,0.33,0.38,0.6c-0.06,0.27-0.32,0.44-0.6,0.38
							c-6.04-1.33-20.62,3.76-20.76,3.82C405.39,378.47,405.33,378.48,405.28,378.48z"/>
					</g>
					<g>
						<path class="st3" d="M391.32,400.27c-0.04,0-0.09-0.01-0.13-0.02c-0.27-0.07-0.42-0.35-0.35-0.62
							c2.66-9.54-8.33-26.42-8.44-26.59c-0.15-0.23-0.09-0.54,0.14-0.69c0.23-0.15,0.54-0.09,0.69,0.14
							c0.46,0.71,11.34,17.43,8.56,27.41C391.74,400.13,391.53,400.27,391.32,400.27z"/>
					</g>
					<g>
						<path class="st3" d="M414.82,412.9c-0.11,0-0.23-0.04-0.32-0.12c-7.88-6.54-29.17-4.78-29.39-4.76
							c-0.27,0.01-0.52-0.18-0.54-0.46c-0.02-0.27,0.18-0.52,0.46-0.54c0.89-0.08,21.92-1.82,30.11,4.99
							c0.21,0.18,0.24,0.49,0.07,0.7C415.1,412.84,414.96,412.9,414.82,412.9z"/>
					</g>
					<g>
						<path class="st3" d="M389.19,403.02c-0.25,0-0.46-0.18-0.49-0.43c-0.03-0.2-2.92-20.19-8.89-27.25
							c-0.18-0.21-0.15-0.53,0.06-0.7c0.21-0.18,0.53-0.15,0.7,0.06c6.15,7.28,9,26.92,9.11,27.75c0.04,0.27-0.15,0.53-0.42,0.57
							C389.24,403.02,389.21,403.02,389.19,403.02z"/>
					</g>
					<g>
						<path class="st3" d="M384.94,442.52c-0.17,0-0.34-0.09-0.44-0.25c-5.34-9.47-21.57-15.22-21.73-15.27
							c-0.26-0.09-0.4-0.38-0.31-0.64c0.09-0.26,0.38-0.4,0.64-0.31c0.68,0.24,16.74,5.92,22.27,15.73
							c0.14,0.24,0.05,0.55-0.19,0.68C385.11,442.5,385.02,442.52,384.94,442.52z"/>
					</g>
				</g>
			</g>
		</g>
		<g>
			<g>
				<g>
					<g>
						<path class="st2" d="M112.06,349.74c0,0,3.55-3.2,6.64-9.81c0.14-0.31,0.29-0.64,0.44-0.98c5.04-11.52,8.26-32.48-8.71-63.9
							c-8.49-15.73-13.83-28.33-17.43-38.18c-0.06-0.16-0.12-0.33-0.17-0.49c-7.95-21.9-7.26-29.96-13.89-28.32
							C69.31,210.46,30.18,345.56,112.06,349.74z"/>
					</g>
				</g>
				<g>
					<g>
						<path class="st3" d="M79.19,254.66c0.03,0.21,0.06,0.42,0.09,0.63c0.48,3.35,1.04,6.84,1.68,10.49
							c0.09,0.52,0.18,1.04,0.27,1.56c0.08,0.43,0.16,0.87,0.23,1.31c0.07,0.4,0.15,0.8,0.22,1.19c0.01,0.07,0.03,0.14,0.04,0.21
							c1.58,8.49,3.95,16.74,7.11,24.67c0.02,0.07,0.04,0.14,0.08,0.21c0.37,0.94,0.76,1.89,1.17,2.83
							c0.06,0.18,0.14,0.36,0.23,0.54c0.69,1.6,1.41,3.2,2.17,4.78c0.2,0.42,0.41,0.84,0.62,1.26c0,0,0,0,0.01,0
							c4.09,8.34,9.08,16.25,14.89,23.59c0.26,0.33,0.51,0.64,0.77,0.96c2.78,3.46,5.74,6.78,8.89,9.97l1.04,1.05
							c0.14-0.31,0.29-0.64,0.44-0.98l-0.77-0.78c-11.61-11.77-20.79-25.44-27.2-40.38c-0.18-0.42-0.36-0.84-0.52-1.25
							c-0.29-0.66-0.56-1.34-0.82-2c-0.26-0.66-0.52-1.32-0.77-1.99c-2.79-7.33-4.92-14.96-6.38-22.79c0-0.02,0-0.05-0.01-0.08
							c-0.97-5.27-1.79-10.26-2.45-14.97l0-0.01c-0.11-0.73-0.2-1.46-0.29-2.16c-2.49-18.8-2.35-32.8,0.42-41
							c0.09-0.26-0.06-0.54-0.31-0.63c-0.26-0.1-0.55,0.05-0.64,0.31C76.44,219.98,76.38,234.56,79.19,254.66z"/>
					</g>
					<g>
						<path class="st3" d="M79.5,255.45c0.02,0,0.03,0.01,0.05,0.01c0.27,0.05,0.53-0.12,0.58-0.4
							c1.15-5.95,12.62-17.83,12.74-17.95c0.19-0.2,0.19-0.51-0.01-0.71c-0.2-0.19-0.51-0.19-0.71,0.01
							c-0.48,0.5-11.8,12.21-13,18.46C79.11,255.13,79.26,255.37,79.5,255.45z"/>
					</g>
					<g>
						<path class="st3" d="M81.51,267.52c0.18,0.05,0.38,0,0.51-0.14c0.19-0.2,0.17-0.52-0.03-0.71
							c-0.42-0.38-10.46-9.44-18.15-10.55c-0.27-0.04-0.53,0.15-0.57,0.42c-0.04,0.27,0.14,0.52,0.42,0.57
							c7.38,1.07,17.52,10.21,17.62,10.3C81.37,267.47,81.44,267.5,81.51,267.52z"/>
					</g>
					<g>
						<path class="st3" d="M82.04,270.25c0.2,0.06,0.42-0.01,0.55-0.18c0.16-0.22,0.11-0.54-0.11-0.7
							c-0.52-0.38-12.87-9.32-19.32-9.79c-0.28-0.02-0.52,0.19-0.54,0.46c-0.02,0.28,0.18,0.51,0.46,0.54
							c6.16,0.46,18.68,9.51,18.8,9.6C81.93,270.21,81.98,270.23,82.04,270.25z"/>
					</g>
					<g>
						<path class="st3" d="M89.18,295.12c0.04,0.01,0.09,0.02,0.13,0.02c0.28,0.01,0.5-0.21,0.51-0.49
							c0.18-9.9,15.54-22.93,15.69-23.07c0.21-0.18,0.24-0.49,0.06-0.7c-0.18-0.21-0.49-0.24-0.7-0.06
							c-0.65,0.54-15.86,13.46-16.05,23.81C88.82,294.86,88.97,295.06,89.18,295.12z"/>
					</g>
					<g>
						<path class="st3" d="M63.05,300.5c0.11,0.03,0.23,0.03,0.34-0.02c9.42-4.02,29.32,3.77,29.52,3.85
							c0.26,0.09,0.55-0.02,0.65-0.28c0.1-0.26-0.02-0.55-0.28-0.65c-0.83-0.33-20.49-8.01-30.28-3.84
							c-0.25,0.11-0.37,0.4-0.26,0.66C62.79,300.36,62.91,300.45,63.05,300.5z"/>
					</g>
					<g>
						<path class="st3" d="M90.43,298.37c0.23,0.07,0.49-0.04,0.6-0.27c0.08-0.18,8.58-18.51,16.31-23.57
							c0.23-0.15,0.3-0.46,0.14-0.69c-0.15-0.23-0.46-0.3-0.69-0.14c-7.97,5.21-16.32,23.22-16.67,23.98
							c-0.12,0.25-0.01,0.55,0.25,0.66C90.38,298.35,90.41,298.36,90.43,298.37z"/>
					</g>
					<g>
						<path class="st3" d="M83.2,337.43c0.17,0.05,0.36,0.01,0.49-0.12c7.83-7.55,25.02-8.41,25.19-8.42
							c0.28-0.01,0.49-0.25,0.48-0.52c-0.01-0.27-0.25-0.49-0.52-0.48c-0.72,0.03-17.74,0.89-25.84,8.7
							c-0.2,0.19-0.2,0.51-0.01,0.71C83.04,337.36,83.12,337.41,83.2,337.43z"/>
					</g>
				</g>
			</g>
			<g>
				<path class="st4" d="M137.2,446.94c0.1-10.65,1-150.58-24.01-165.33c-9.75-5.75-16.78-5.59-21.76-3.15
					c-7.95,3.9-10.74,13.85-6.52,21.64c19.17,35.41,49.4,137.68,52.09,146.85H137.2z"/>
				<g>
					<g>
						<path class="st3" d="M132.52,399.77c-0.27,0-0.49-0.21-0.5-0.48c-2.3-65.08-35.57-112.26-35.91-112.73
							c-0.16-0.22-0.11-0.54,0.12-0.7c0.22-0.16,0.54-0.11,0.7,0.12c0.34,0.47,33.78,47.88,36.09,113.27
							c0.01,0.28-0.21,0.51-0.48,0.52C132.54,399.77,132.53,399.77,132.52,399.77z"/>
					</g>
					<g>
						<path class="st3" d="M105.02,300.94c-0.11,0-0.22-0.03-0.31-0.11c-6.54-5.1-16.93-1.79-17.04-1.75
							c-0.26,0.08-0.54-0.06-0.63-0.32c-0.09-0.26,0.06-0.54,0.32-0.63c0.45-0.15,11-3.52,17.96,1.91c0.22,0.17,0.26,0.48,0.09,0.7
							C105.32,300.87,105.17,300.94,105.02,300.94z"/>
					</g>
					<g>
						<path class="st3" d="M106.36,303.94c-0.1,0-0.2-0.03-0.28-0.09c-6.05-4.14-16.78-0.48-16.89-0.44
							c-0.26,0.09-0.55-0.05-0.64-0.31c-0.09-0.26,0.05-0.54,0.31-0.64c0.46-0.16,11.31-3.87,17.78,0.56
							c0.23,0.16,0.29,0.47,0.13,0.7C106.67,303.86,106.52,303.94,106.36,303.94z"/>
					</g>
					<g>
						<path class="st3" d="M115.52,322.77c-0.03,0-0.07,0-0.1-0.01c-0.27-0.05-0.45-0.32-0.39-0.59c1.2-5.99,7.79-9.84,8.07-10
							c0.24-0.14,0.54-0.05,0.68,0.18c0.14,0.24,0.06,0.55-0.18,0.68c-0.06,0.04-6.48,3.79-7.59,9.33
							C115.97,322.61,115.76,322.77,115.52,322.77z"/>
					</g>
				</g>
			</g>
			<g>
				<path class="st2" d="M138.71,446.94c-4.45-34.04-19.72-126.14-56.52-144c-42.49-20.62-44.67,28.67-27.33,46.67
					c9.31,9.66,55.52,70.52,75.78,97.33H138.71z"/>
				<g>
					<g>
						<path class="st3" d="M135.19,446.44c-0.23,0-0.43-0.16-0.49-0.39c-0.24-1.02-24.61-102.46-81.41-132.34
							c-0.24-0.13-0.34-0.43-0.21-0.67c0.13-0.25,0.43-0.34,0.68-0.21c29.91,15.74,50.6,51.07,62.68,77.95
							c13.08,29.08,19.18,54.79,19.24,55.05c0.06,0.27-0.1,0.54-0.37,0.6C135.27,446.44,135.23,446.44,135.19,446.44z"/>
					</g>
					<g>
						<path class="st3" d="M88.36,307.44c-0.12,0-0.23-0.04-0.33-0.12c-0.09-0.08-9.56-8.07-24.04-8.88
							c-0.28-0.02-0.49-0.25-0.47-0.53c0.01-0.28,0.25-0.51,0.53-0.47c14.83,0.83,24.53,9.04,24.63,9.12
							c0.21,0.18,0.23,0.5,0.05,0.71C88.64,307.38,88.5,307.44,88.36,307.44z"/>
					</g>
					<g>
						<path class="st3" d="M53.94,347.19c-0.14,0-0.28-0.06-0.38-0.17c-0.18-0.21-0.16-0.52,0.05-0.71
							c0.13-0.11,12.72-11,28.48-10.37c0.28,0.01,0.49,0.24,0.48,0.52c-0.01,0.28-0.25,0.49-0.52,0.48
							c-15.38-0.64-27.65,10.02-27.77,10.13C54.18,347.15,54.06,347.19,53.94,347.19z"/>
					</g>
					<g>
						<path class="st3" d="M95.82,354.31c-0.24,0-0.45-0.17-0.49-0.41c-1.26-7.18,6.21-26.57,6.53-27.39
							c0.1-0.26,0.39-0.39,0.65-0.29c0.26,0.1,0.39,0.39,0.29,0.65c-0.08,0.2-7.69,19.95-6.47,26.86c0.05,0.27-0.13,0.53-0.41,0.58
							C95.87,354.31,95.84,354.31,95.82,354.31z"/>
					</g>
					<g>
						<path class="st3" d="M97.94,357.69c-0.27,0-0.49-0.21-0.5-0.48c-0.38-11.5,6.87-25.89,7.18-26.49
							c0.12-0.25,0.42-0.35,0.67-0.22c0.25,0.12,0.34,0.43,0.22,0.67c-0.07,0.15-7.44,14.77-7.07,26.01
							c0.01,0.28-0.21,0.51-0.48,0.52C97.95,357.69,97.95,357.69,97.94,357.69z"/>
					</g>
				</g>
			</g>
			<g>
				<path class="st4" d="M133.63,446.94c-13.77-26.16-45.75-84.43-61.44-92.67c-20.33-10.67-33.67,11.67-22.67,24
					c8.02,9,52.58,48.14,76.11,68.67H133.63z"/>
				<g>
					<g>
						<path class="st3" d="M127.86,445.77c-0.18,0-0.35-0.1-0.44-0.27c-11.83-22.67-72.63-83.27-73.24-83.88
							c-0.2-0.19-0.2-0.51,0-0.71c0.19-0.2,0.51-0.2,0.71,0c0.61,0.61,61.53,61.32,73.42,84.12c0.13,0.25,0.03,0.55-0.21,0.67
							C128.01,445.75,127.94,445.77,127.86,445.77z"/>
					</g>
					<g>
						<path class="st3" d="M50.94,377.94c-0.17,0-0.33-0.08-0.43-0.24c-0.15-0.24-0.07-0.54,0.16-0.69
							c0.41-0.26,10.19-6.23,17.36-2.65c0.25,0.12,0.35,0.42,0.22,0.67c-0.12,0.25-0.42,0.35-0.67,0.22
							c-6.67-3.33-16.29,2.54-16.39,2.6C51.12,377.92,51.03,377.94,50.94,377.94z"/>
					</g>
					<g>
						<path class="st3" d="M52.32,380.56c-0.18,0-0.36-0.1-0.45-0.28c-0.12-0.25-0.02-0.55,0.23-0.67
							c0.5-0.25,12.42-6.08,17.72-3.11c0.24,0.14,0.33,0.44,0.19,0.68c-0.14,0.24-0.44,0.32-0.68,0.19
							c-4.84-2.72-16.67,3.08-16.78,3.14C52.47,380.55,52.39,380.56,52.32,380.56z"/>
					</g>
					<g>
						<path class="st3" d="M78.44,386.06c-0.2,0-0.39-0.12-0.46-0.31c-2.56-6.41,4.01-17,4.29-17.45c0.15-0.23,0.46-0.3,0.69-0.16
							c0.23,0.15,0.3,0.46,0.16,0.69c-0.07,0.11-6.59,10.61-4.21,16.55c0.1,0.26-0.02,0.55-0.28,0.65
							C78.57,386.05,78.5,386.06,78.44,386.06z"/>
					</g>
					<g>
						<path class="st3" d="M81.19,405.81c-0.2,0-0.38-0.12-0.46-0.31c-0.1-0.26,0.02-0.55,0.28-0.65c0.39-0.16,9.5-3.81,13.9-1.74
							c0.25,0.12,0.36,0.42,0.24,0.67c-0.12,0.25-0.41,0.36-0.67,0.24c-4.01-1.88-13.01,1.72-13.1,1.76
							C81.32,405.8,81.25,405.81,81.19,405.81z"/>
					</g>
					<g>
						<path class="st3" d="M102.19,412.19c-0.22,0-0.42-0.14-0.48-0.36c-1.05-3.53,3.11-11.53,3.29-11.87
							c0.13-0.25,0.43-0.34,0.67-0.21c0.24,0.13,0.34,0.43,0.21,0.67c-1.16,2.21-3.99,8.52-3.21,11.13
							c0.08,0.26-0.07,0.54-0.34,0.62C102.29,412.18,102.24,412.19,102.19,412.19z"/>
					</g>
					<g>
						<path class="st3" d="M104.44,414.69c-0.23,0-0.44-0.16-0.49-0.4c-1.03-4.89,2.9-11.34,3.06-11.61
							c0.14-0.24,0.45-0.31,0.69-0.16c0.24,0.14,0.31,0.45,0.16,0.69c-0.04,0.06-3.88,6.39-2.94,10.89
							c0.06,0.27-0.12,0.54-0.39,0.59C104.51,414.69,104.47,414.69,104.44,414.69z"/>
					</g>
				</g>
			</g>
		</g>
	</g>
</g>
<g id="OBJECTS">
	<g>
		<g>
			<g>
				<g>
					<path class="st3" d="M211.52,439.73c0,3.84-3.12,6.96-6.96,6.96s-6.96-3.12-6.96-6.96c0-3.84,3.12-6.96,6.96-6.96
						S211.52,435.89,211.52,439.73z"/>
				</g>
				<g>
					<path class="st3" d="M226.36,439.73c0,3.84-3.12,6.96-6.96,6.96s-6.96-3.12-6.96-6.96c0-3.84,3.12-6.96,6.96-6.96
						S226.36,435.89,226.36,439.73z"/>
					<path class="st1" d="M223.23,439.73c0,2.12-1.72,3.83-3.83,3.83c-2.12,0-3.83-1.72-3.83-3.83c0-2.12,1.72-3.83,3.83-3.83
						C221.52,435.9,223.23,437.61,223.23,439.73z"/>
				</g>
			</g>
			<g>
				<g>
					<path class="st3" d="M162.77,439.73c0,3.84,3.12,6.96,6.96,6.96c3.84,0,6.96-3.12,6.96-6.96c0-3.84-3.12-6.96-6.96-6.96
						C165.89,432.77,162.77,435.89,162.77,439.73z"/>
				</g>
				<g>
					<path class="st3" d="M147.94,439.73c0,3.84,3.12,6.96,6.96,6.96c3.84,0,6.96-3.12,6.96-6.96c0-3.84-3.12-6.96-6.96-6.96
						C151.06,432.77,147.94,435.89,147.94,439.73z"/>
					<path class="st1" d="M151.07,439.73c0,2.12,1.72,3.83,3.83,3.83c2.12,0,3.83-1.72,3.83-3.83c0-2.12-1.72-3.83-3.83-3.83
						C152.78,435.9,151.07,437.61,151.07,439.73z"/>
				</g>
			</g>
		</g>
		<g>
			<g>
				<g>
					<g>
						<g>
							<rect x="164.11" y="223.11" class="st0" width="6.08" height="81.67"/>
						</g>
						<g>
							<rect x="204.11" y="223.11" class="st0" width="6.08" height="81.67"/>
						</g>
					</g>
				</g>
				<g>
					<path class="st3" d="M211.48,226.69h-8v-8.67h-32.67v7.75h-8v-11c0-2.62,2.13-4.75,4.75-4.75h39.17c2.62,0,4.75,2.13,4.75,4.75
						V226.69z"/>
				</g>
			</g>
			<g>
				<rect x="164.11" y="292.62" class="st3" width="6.06" height="5.62"/>
			</g>
			<g>
				<rect x="204.11" y="292.62" class="st3" width="6.06" height="5.62"/>
			</g>
		</g>
		<g>
			<path class="st4" d="M226.26,432.61h-78.22c-6.4,0-11.58-5.19-11.58-11.58V309.83c0-6.4,5.19-11.58,11.58-11.58h78.22
				c6.4,0,11.58,5.19,11.58,11.58v111.19C237.84,427.42,232.66,432.61,226.26,432.61z"/>
			<rect x="152.65" y="423.58" class="st3" width="68.67" height="9"/>
			<g class="st5">
				<path class="st4" d="M153.82,422.58L153.82,422.58c-1.29,0-2.33-1.04-2.33-2.33v-93c0-1.29,1.04-2.33,2.33-2.33l0,0
					c1.29,0,2.33,1.04,2.33,2.33v93C156.15,421.54,155.1,422.58,153.82,422.58z"/>
				<path class="st4" d="M167.15,422.58L167.15,422.58c-1.29,0-2.33-1.04-2.33-2.33v-93c0-1.29,1.04-2.33,2.33-2.33l0,0
					c1.29,0,2.33,1.04,2.33,2.33v93C169.48,421.54,168.44,422.58,167.15,422.58z"/>
				<path class="st4" d="M180.48,422.58L180.48,422.58c-1.29,0-2.33-1.04-2.33-2.33v-93c0-1.29,1.04-2.33,2.33-2.33h0
					c1.29,0,2.33,1.04,2.33,2.33v93C182.82,421.54,181.77,422.58,180.48,422.58z"/>
				<path class="st4" d="M193.82,422.58L193.82,422.58c-1.29,0-2.33-1.04-2.33-2.33v-93c0-1.29,1.04-2.33,2.33-2.33l0,0
					c1.29,0,2.33,1.04,2.33,2.33v93C196.15,421.54,195.1,422.58,193.82,422.58z"/>
				<path class="st4" d="M207.15,422.58L207.15,422.58c-1.29,0-2.33-1.04-2.33-2.33v-93c0-1.29,1.04-2.33,2.33-2.33l0,0
					c1.29,0,2.33,1.04,2.33,2.33v93C209.48,421.54,208.44,422.58,207.15,422.58z"/>
				<path class="st4" d="M220.48,422.58L220.48,422.58c-1.29,0-2.33-1.04-2.33-2.33v-93c0-1.29,1.04-2.33,2.33-2.33h0
					c1.29,0,2.33,1.04,2.33,2.33v93C222.82,421.54,221.77,422.58,220.48,422.58z"/>
			</g>
			<g>
				<g>
					<path class="st0" d="M155.96,312.68l-9.26,16.03c-0.6,1.05,0.15,2.35,1.36,2.35h18.51c1.21,0,1.96-1.31,1.36-2.35l-9.26-16.03
						C158.07,311.63,156.56,311.63,155.96,312.68z"/>
					<path class="st2" d="M156.38,316.22l-6.4,11.08c-0.42,0.72,0.1,1.63,0.94,1.63h12.8c0.83,0,1.36-0.9,0.94-1.63l-6.4-11.08
						C157.84,315.49,156.79,315.49,156.38,316.22z"/>
				</g>
				<g>
					
						<ellipse transform="matrix(0.2289 -0.9735 0.9735 0.2289 -155.1452 428.1061)" class="st0" cx="192.65" cy="311.98" rx="8.79" ry="8.79"/>
					<g>
						<path class="st1" d="M199.61,311.98c0,3.05-1.97,5.65-4.71,6.58c-0.02,0.02-0.05,0.02-0.07,0.03
							c-0.69,0.23-1.42,0.35-2.18,0.35c-0.87,0-1.71-0.16-2.48-0.46c-0.02,0-0.04-0.01-0.06-0.03c-2.59-1.01-4.42-3.53-4.42-6.47
							s1.83-5.46,4.42-6.47c0.02-0.02,0.04-0.03,0.06-0.03c0.77-0.3,1.61-0.46,2.48-0.46c0.76,0,1.49,0.12,2.18,0.35
							c0.02,0.01,0.05,0.01,0.07,0.03C197.64,306.33,199.61,308.93,199.61,311.98z"/>
						<path class="st6" d="M190.17,305.48v13c-0.02,0-0.04-0.01-0.06-0.03c-2.59-1.01-4.42-3.53-4.42-6.47s1.83-5.46,4.42-6.47
							C190.13,305.49,190.15,305.48,190.17,305.48z"/>
						<path class="st6" d="M199.61,311.98c0,3.05-1.97,5.65-4.71,6.58c-0.02,0.02-0.05,0.02-0.07,0.03v-13.22
							c0.02,0.01,0.05,0.01,0.07,0.03C197.64,306.33,199.61,308.93,199.61,311.98z"/>
					</g>
				</g>
			</g>
			<g>
				<g>
					<polygon class="st3" points="141.63,425.88 140.92,425.17 145.52,420.57 145.52,309.81 141.17,305.46 141.88,304.75 
						146.52,309.4 146.52,420.98 					"/>
				</g>
				<g>
					<polygon class="st3" points="232.34,425.88 227.44,420.98 227.44,309.4 232.09,304.75 232.79,305.46 228.44,309.81 
						228.44,420.57 233.04,425.17 					"/>
				</g>
			</g>
		</g>
	</g>
	<g>
		<rect x="344" y="132.98" class="st3" width="11.06" height="313.79"/>
		<g>
			<path class="st3" d="M319.19,170.64l72.56-2.4l1.21,20.54l-72.34,6.1c-0.13,0.01-0.25-0.02-0.36-0.09l-17.85-10.85
				c-0.43-0.26-0.46-0.91-0.05-1.21l16.49-11.99C318.96,170.69,319.08,170.65,319.19,170.64z"/>
			<text transform="matrix(0.9984 -0.0564 0.0564 0.9984 321.7984 188.878)" class="st0 st7 st8">TRAVEL</text>
		</g>
		<g>
			<path class="st3" d="M382.7,227.52l-70.42,17.68l-5.52-19.83l69.41-21.25c0.12-0.04,0.25-0.03,0.37,0.01l19.74,6.84
				c0.48,0.17,0.64,0.79,0.31,1.17l-13.59,15.2C382.91,227.43,382.81,227.49,382.7,227.52z"/>
			<text transform="matrix(0.9746 -0.224 0.224 0.9746 333.2409 234.1472)" class="st0 st7 st8">THE</text>
		</g>
		<g>
			<path class="st3" d="M316.86,256.31l72.56-2.4l1.21,20.54l-72.34,6.1c-0.13,0.01-0.25-0.02-0.36-0.09l-17.85-10.85
				c-0.43-0.26-0.46-0.91-0.05-1.21l16.49-11.99C316.63,256.35,316.74,256.31,316.86,256.31z"/>
			<text transform="matrix(0.9986 -0.0521 0.0521 0.9986 319.4443 274.2814)" class="st0 st7 st8">WORLD</text>
		</g>
		<g>
			<g>
				<path class="st0" d="M343.98,278.31c1.81-0.54,3.64-0.77,5.48-0.94c1.84-0.13,3.69-0.19,5.56,0.06
					c-1.81,0.54-3.64,0.78-5.48,0.94C347.7,278.5,345.85,278.56,343.98,278.31z"/>
			</g>
			<g>
				<path class="st0" d="M344.07,255.4c1.82-0.44,3.64-0.58,5.47-0.65c1.83-0.03,3.66,0.01,5.49,0.35
					c-1.82,0.44-3.64,0.58-5.47,0.65C347.73,255.78,345.9,255.74,344.07,255.4z"/>
			</g>
			<g>
				<path class="st0" d="M344.07,237.15c1.74-0.81,3.54-1.33,5.36-1.78c1.83-0.42,3.68-0.76,5.59-0.81
					c-1.74,0.82-3.54,1.33-5.36,1.78C347.83,236.76,345.98,237.1,344.07,237.15z"/>
			</g>
			<g>
				<path class="st0" d="M344.07,213.94c1.7-0.91,3.49-1.53,5.3-2.08c1.82-0.52,3.65-0.97,5.58-1.12c-1.7,0.91-3.49,1.53-5.3,2.08
					C347.83,213.33,345.99,213.78,344.07,213.94z"/>
			</g>
			<g>
				<path class="st0" d="M344.11,192.94c0.87-0.36,1.78-0.52,2.68-0.68c0.9-0.16,1.81-0.26,2.71-0.34c1.82-0.13,3.64-0.19,5.48,0.07
					c-1.78,0.54-3.59,0.77-5.4,0.93c-0.91,0.06-1.81,0.12-2.73,0.12C345.94,193.05,345.03,192.99,344.11,192.94z"/>
			</g>
			<g>
				<path class="st0" d="M344.23,169.77c1.78-0.43,3.56-0.55,5.34-0.6c1.79-0.02,3.57,0.03,5.36,0.4c-1.78,0.43-3.56,0.55-5.34,0.6
					C347.81,170.19,346.02,170.13,344.23,169.77z"/>
			</g>
		</g>
	</g>
	<g>
		<path class="st3" d="M453.82,449.15h-395c-0.83,0-1.5-0.67-1.5-1.5s0.67-1.5,1.5-1.5h395c0.83,0,1.5,0.67,1.5,1.5
			S454.64,449.15,453.82,449.15z"/>
	</g>
	<g>
		<g>
			<g>
				<path class="st9" d="M305.32,407.76l-5.71-5.05l0-0.01l-13.06-20.86c-2.56-0.22-5.12-0.47-7.67-0.76
					c-7.29-0.85-14.56-1.84-21.85-2.71c18.13,18.83,31.4,32.54,31.47,32.61l0,0c0,0-8.29,13.41-10.94,18.86
					c-0.28,0.58,0.41,1.14,0.92,0.76l26.71-19.9C306.16,409.98,306.22,408.55,305.32,407.76z"/>
				<g>
					<g>
						<path class="st2" d="M300.87,403.05c1.29,0.66,3.51,2.09,4.81,4.54c0,0-21.71,19.52-29.86,22.65c0,0,4.07-5.26,6.18-8.76
							c1.63-2.71,3.78-9.47,4.68-12.41c0.22-0.71,1.02-1.04,1.67-0.69c1.15,0.61,2.85,1.42,4.01,1.54c1.73,0.19,5.1-3.35,7-6.45
							C299.67,402.95,300.33,402.78,300.87,403.05z"/>
						<path class="st0" d="M305.68,407.59c0,0,2.06,2.19,2.26,3.02c0.2,0.84-20.86,19.99-30.68,23.52c0,0-1.68-1.76-1.44-3.89
							L305.68,407.59z"/>
					</g>
					<g>
						<g>
							<path class="st3" d="M286.23,410.98c0.51-0.13,1.03-0.21,1.56-0.22c0.27-0.01,0.54,0,0.85,0.09
								c0.13,0.04,0.39,0.13,0.48,0.45c0.04,0.18,0,0.29-0.05,0.41c-0.05,0.1-0.1,0.17-0.16,0.24c-0.44,0.47-0.9,0.72-1.37,0.98
								c-0.47,0.25-0.94,0.47-1.45,0.67l0.05-0.89c0.62,0.31,1.2,0.66,1.76,1.09c0.28,0.22,0.56,0.45,0.8,0.8
								c0.11,0.19,0.26,0.4,0.22,0.77c0,0.18-0.11,0.32-0.21,0.46c-0.09,0.09-0.17,0.15-0.25,0.22c-0.66,0.41-1.3,0.58-1.96,0.75
								c-0.66,0.15-1.32,0.27-1.99,0.31l1.82-0.81c0.58-0.28,1.2-0.56,1.63-0.91c0.04-0.04,0.09-0.09,0.11-0.12
								c-0.02-0.01,0,0.01-0.02,0.01c0.01,0.03-0.03-0.06-0.1-0.14c-0.15-0.18-0.39-0.38-0.64-0.56c-0.5-0.36-1.07-0.69-1.61-0.99
								l-0.01-0.01c-0.24-0.13-0.32-0.43-0.19-0.67c0.06-0.1,0.15-0.18,0.25-0.22c0.46-0.17,0.94-0.36,1.4-0.55
								c0.44-0.2,0.93-0.42,1.23-0.67c0.06-0.05,0.08-0.12,0.08-0.03c0.04,0.07,0.04,0-0.06-0.04c-0.17-0.09-0.42-0.15-0.66-0.2
								C287.27,411.1,286.75,411.04,286.23,410.98z"/>
						</g>
						<g>
							<path class="st3" d="M302.61,404.65c0.11,0.85,0.1,1.55,0.15,2.24c0.01,0.34,0.06,0.67,0.1,1.02
								c0.05,0.35,0.15,0.68,0.25,1.12c-0.41-0.15-0.76-0.45-0.98-0.83c-0.23-0.38-0.34-0.81-0.38-1.24
								c-0.01-0.43,0.04-0.85,0.18-1.25C302.07,405.31,302.28,404.94,302.61,404.65z"/>
						</g>
					</g>
				</g>
			</g>
			<g>
				<path class="st9" d="M274.02,380.48c-7.8-0.96-15.58-2.02-23.39-2.85c-0.74-0.08-1.49-0.14-2.24-0.21
					c-2.46,29.23-4.4,52.85-4.8,57.74c-2.44,0.95-14.82,5.8-19.68,8.27c-0.57,0.29-0.36,1.16,0.28,1.16l33.31,0.26
					c1.2,0.01,2.11-1.09,1.88-2.27l-1.5-7.48l15.67-52.98C273.71,381.59,273.86,381.03,274.02,380.48z"/>
				<g>
					<g>
						<path class="st2" d="M258.9,435.21c0.65,1.3,1.58,3.77,1.16,6.5c0,0-29.07,2.76-37.48,0.43c0,0,6.4-1.8,10.18-3.37
							c2.92-1.21,8.68-5.36,11.15-7.19c0.6-0.44,1.44-0.23,1.76,0.44c0.56,1.18,1.45,2.84,2.3,3.63c1.28,1.18,6.09,0.34,9.46-1.02
							C258,434.41,258.63,434.67,258.9,435.21z"/>
						<path class="st0" d="M260.07,441.72c0,0,0.35,2.98,0.01,3.77c-0.34,0.79-28.66,3.66-38.65,0.65c0,0-0.3-2.41,1.16-3.99
							L260.07,441.72z"/>
					</g>
					<g>
						<g>
							<path class="st3" d="M241.53,434c0.51,0.14,1,0.32,1.47,0.57c0.24,0.13,0.47,0.26,0.7,0.5c0.1,0.1,0.27,0.31,0.2,0.63
								c-0.05,0.18-0.14,0.25-0.24,0.33c-0.09,0.06-0.17,0.1-0.26,0.13c-0.61,0.2-1.13,0.19-1.68,0.19
								c-0.54-0.01-1.06-0.05-1.59-0.13l0.48-0.75c0.39,0.58,0.72,1.16,1,1.81c0.13,0.33,0.26,0.66,0.3,1.09
								c0,0.22,0.03,0.48-0.19,0.78c-0.09,0.16-0.26,0.23-0.41,0.3c-0.12,0.04-0.22,0.05-0.33,0.06c-0.78,0.03-1.42-0.13-2.08-0.31
								c-0.65-0.19-1.28-0.41-1.88-0.71l1.98,0.18c0.64,0.05,1.32,0.1,1.87,0c0.05-0.02,0.12-0.03,0.16-0.05
								c-0.02-0.02,0,0.01-0.02,0c-0.01,0.04,0-0.07-0.01-0.17c-0.04-0.23-0.16-0.52-0.28-0.8c-0.26-0.56-0.59-1.12-0.92-1.66
								L239.8,436c-0.14-0.23-0.07-0.53,0.16-0.67c0.1-0.06,0.22-0.08,0.33-0.07c0.49,0.07,0.99,0.15,1.49,0.2
								c0.48,0.04,1.01,0.09,1.4,0.02c0.08-0.02,0.13-0.06,0.09,0.01c0,0.08,0.04,0.02-0.03-0.06c-0.1-0.16-0.3-0.34-0.48-0.5
								C242.37,434.61,241.95,434.31,241.53,434z"/>
						</g>
						<g>
							<path class="st3" d="M259.41,437.38c-0.32,0.8-0.67,1.4-0.97,2.03c-0.16,0.31-0.28,0.61-0.41,0.94
								c-0.12,0.33-0.21,0.67-0.33,1.1c-0.28-0.33-0.44-0.76-0.44-1.2c-0.01-0.44,0.1-0.87,0.28-1.26c0.2-0.38,0.45-0.72,0.77-1
								C258.62,437.7,258.98,437.48,259.41,437.38z"/>
						</g>
					</g>
				</g>
			</g>
			<g>
				<path class="st0" d="M300.9,248.48c1.75-7.58,4.84-33.75,3.92-38.41c-0.92-4.67-7.92-28.75-7.92-28.75l-10.33-0.67l-40.12-3.63
					l-9.49,25.05l-0.35,0.9l-11,29.03c-2.27,6.01-4.05,12.19-5.31,18.49l-12.13,60.54c-1.24,6.22,0.48,12.67,4.67,17.43l35.44,40.33
					l-5.46,61.11l17.25,1.5c5.24-10.69,9.28-22.95,12.38-35.11l11.74,13.36l14.76-9.63c0,0-8.9-15.75-20.43-33.78
					c3.07-19.62,3.8-34.34,3.8-34.34S299.15,256.07,300.9,248.48z M251.85,328.79c-4.05-4.81-7.89-8.78-11.28-11.39l23.33-84
					L251.85,328.79z"/>
				<g>
					<g>
						<path class="st3" d="M253.74,181.26c-0.04,0.57-0.86,14-7.87,19.61c-1.98,1.58-4.27,2.38-6.83,2.38
							c-0.72,0-1.46-0.06-2.22-0.19c-0.08-0.01-0.15-0.04-0.21-0.09l0.35-0.9c0.01-0.01,0.02,0,0.03,0
							c3.17,0.53,5.94-0.14,8.25-1.99c6.67-5.33,7.49-18.74,7.5-18.87c0.01-0.28,0.24-0.49,0.52-0.48
							C253.54,180.75,253.75,180.99,253.74,181.26z"/>
					</g>
					<g>
						<path class="st3" d="M240.65,317.9c-0.04,0-0.08,0-0.11-0.01l-3.25-0.75c-0.27-0.06-0.44-0.33-0.38-0.6
							c0.06-0.27,0.33-0.44,0.6-0.38l2.43,0.56l-1.35-4.77c-0.08-0.27,0.08-0.54,0.34-0.62c0.26-0.08,0.54,0.08,0.62,0.34l1.58,5.58
							c0.05,0.17,0,0.35-0.12,0.48C240.92,317.84,240.78,317.9,240.65,317.9z"/>
					</g>
					<path class="st3" d="M273.6,183.57c-0.27-0.02-0.52,0.18-0.54,0.46l-2.16,27.52l-5.72,7.37l2.54-35.32
						c0.02-0.28-0.19-0.51-0.46-0.53c-0.27-0.02-0.51,0.19-0.54,0.46l-3.67,51c-0.02,0.28,0.19,0.51,0.46,0.53c0.01,0,0.02,0,0.04,0
						c0.26,0,0.48-0.2,0.5-0.46l1-13.88l6.73-8.68c0.06-0.08,0.1-0.17,0.1-0.27l2.17-27.67
						C274.09,183.83,273.88,183.59,273.6,183.57z"/>
					<g>
						<path class="st3" d="M281.82,404.09c-0.17,0-0.34-0.09-0.43-0.25c-0.14-0.24-0.06-0.54,0.18-0.68l13.5-7.88
							c0.24-0.14,0.54-0.06,0.68,0.18c0.14,0.24,0.06,0.54-0.18,0.68l-13.5,7.88C281.99,404.06,281.9,404.09,281.82,404.09z"/>
					</g>
					<path class="st3" d="M294.05,185.51c-0.08-0.27-0.35-0.42-0.62-0.34c-0.26,0.08-0.42,0.35-0.34,0.62
						c0.05,0.16,3.1,10.75,4.88,20.39c-2.51,0.18-4.68-0.54-6.44-2.15c-5.93-5.42-5.71-19.11-5.71-19.24
						c0.01-0.28-0.21-0.5-0.49-0.51h-0.01c-0.27,0-0.49,0.22-0.5,0.49c-0.01,0.58-0.23,14.27,6.03,20c1.78,1.63,3.92,2.45,6.37,2.45
						c0.3,0,0.61-0.03,0.92-0.05c0.84,4.77,1.33,9.21,0.93,11.91c-0.54,3.7-4.84,27.83-9.82,55.78
						c-6.31,35.44-13.47,75.61-14.18,80.98c-0.07,0.53-0.18,1.23-0.33,2.05c-3.79,16.25-14.67,64.1-15.31,66.74l-14.18-1.65
						c-0.28-0.03-0.52,0.17-0.55,0.44c-0.03,0.27,0.16,0.52,0.44,0.55l16.63,1.94c0.02,0,0.04,0,0.06,0c0.25,0,0.47-0.19,0.5-0.44
						c0.03-0.27-0.17-0.52-0.44-0.55l-1.44-0.17c0.71-2.92,11.1-48.32,14.78-64.06c0,0.01,0.01,0.01,0.01,0.02
						c0.04-0.18,0.06-0.33,0.1-0.5c0-0.02,0.01-0.03,0.01-0.05c0,0,0,0,0,0c0.35-1.8,0.61-3.25,0.73-4.18
						c0.7-5.35,7.86-45.5,14.17-80.93c4.98-27.95,9.28-52.1,9.83-55.81C301.31,210.71,294.34,186.53,294.05,185.51z"/>
					<path class="st3" d="M248.17,368.5c0.1-3.35,0.31-6.69,0.54-10.03c0.21-3.34,0.51-6.68,0.8-10.01
						c0.32-3.33,0.64-6.66,1.03-9.99l0.6-4.99c0.24-1.66,0.44-3.32,0.7-4.98c-0.04,1.68-0.14,3.35-0.21,5.02l-0.32,5.01
						c-0.22,3.34-0.51,6.68-0.8,10.01c-0.32,3.33-0.64,6.66-1.03,9.99C249.08,361.86,248.68,365.19,248.17,368.5z"/>
					<path class="st3" d="M272.42,396.33c0.39-2.54,0.86-5.07,1.35-7.59c0.47-2.52,1.01-5.03,1.53-7.54l1.63-7.51
						c0.28-1.25,0.55-2.5,0.81-3.76c0.29-1.25,0.52-2.51,0.77-3.77c-0.06,2.58-0.43,5.13-0.82,7.67c-0.39,2.54-0.89,5.06-1.41,7.58
						c-0.55,2.51-1.11,5.02-1.76,7.5C273.87,391.4,273.2,393.88,272.42,396.33z"/>
				</g>
			</g>
		</g>
		<g>
			<g>
				<g>
					<path class="st9" d="M295.8,82.5c-0.2-0.26-0.4-0.47-0.6-0.64c-1.38-1.16-2.85-0.45-3.65,0.12v-5
						c0-8.05-6.53-14.58-14.58-14.58s-14.58,6.53-14.58,14.58v5c-0.87-0.62-2.49-1.38-3.94,0.15c-0.1,0.11-0.21,0.23-0.31,0.37
						c-0.55,0.72-0.72,1.68-0.6,2.7c0.31,2.76,2.71,5.94,5.01,5.91c1,7.08,7.07,12.53,14.42,12.53c7.36,0,13.43-5.45,14.42-12.53
						c2.31,0.03,4.72-3.17,5.02-5.95v-0.01C296.51,84.15,296.34,83.21,295.8,82.5z"/>
					<g>
						<g>
							<path class="st3" d="M279.09,76.6c0.62-0.4,1.25-0.57,1.93-0.66c0.67-0.08,1.36-0.01,2.03,0.15
								c0.67,0.15,1.32,0.45,1.88,0.83c0.58,0.38,1.03,0.91,1.38,1.46c0.12,0.18,0.07,0.42-0.11,0.53
								c-0.12,0.08-0.27,0.08-0.39,0.02l-0.04-0.02c-0.52-0.28-1-0.56-1.52-0.72c-0.5-0.18-1.01-0.31-1.54-0.37
								c-0.52-0.07-1.05-0.07-1.59-0.08c-0.53-0.01-1.11,0.01-1.65-0.03l-0.1-0.01c-0.33-0.03-0.58-0.32-0.56-0.65
								C278.84,76.87,278.94,76.7,279.09,76.6z"/>
						</g>
						<g>
							<path class="st3" d="M274.69,77.72c-0.54,0.04-1.12,0.02-1.65,0.03c-0.54,0.01-1.07,0.01-1.59,0.08
								c-0.52,0.06-1.03,0.18-1.54,0.37c-0.52,0.16-0.99,0.44-1.52,0.72l-0.04,0.02c-0.19,0.1-0.42,0.03-0.52-0.15
								c-0.07-0.13-0.06-0.28,0.02-0.39c0.36-0.55,0.81-1.08,1.38-1.46c0.57-0.39,1.21-0.68,1.88-0.83
								c0.67-0.16,1.36-0.23,2.03-0.15c0.68,0.09,1.31,0.26,1.93,0.66c0.28,0.18,0.36,0.56,0.18,0.84
								c-0.11,0.16-0.28,0.26-0.46,0.27L274.69,77.72z"/>
						</g>
						<g>
							<path class="st3" d="M276.25,92.78c1.26-0.03,2.46-0.12,3.6-0.44c0.57-0.16,1.1-0.4,1.61-0.7c0.51-0.3,0.95-0.71,1.39-1.17
								c-0.24,0.58-0.59,1.15-1.11,1.56c-0.5,0.42-1.1,0.72-1.73,0.9C278.77,93.26,277.43,93.23,276.25,92.78z"/>
						</g>
						<g>
							<path class="st3" d="M279.55,94.11c0.48-0.18,0.96-0.3,1.42-0.48c0.47-0.16,0.89-0.37,1.27-0.71c-0.18,0.51-0.69,0.81-1.16,1
								C280.58,94.08,280.07,94.18,279.55,94.11z"/>
						</g>
						<g>
							<path class="st3" d="M277.28,81.3c0.19,0.81,0.29,1.63,0.29,2.47c0,0.84-0.12,1.69-0.39,2.51c-0.3,0.82-0.68,1.48-0.71,2.17
								c-0.01,0.34,0.05,0.68,0.26,0.94c0.21,0.27,0.56,0.48,0.98,0.42c-0.35,0.26-0.9,0.19-1.28-0.08
								c-0.41-0.28-0.63-0.78-0.68-1.24c-0.12-0.97,0.33-1.8,0.56-2.51C276.82,84.54,276.91,82.93,277.28,81.3z"/>
						</g>
						<g>
							<path class="st3" d="M258.97,84.53c0.02-0.5,0.17-1.07,0.66-1.44c0.23-0.18,0.56-0.29,0.89-0.25
								c0.33,0.03,0.62,0.2,0.84,0.39c0.46,0.39,0.72,0.89,0.95,1.36c0.23,0.47,0.41,0.93,0.61,1.39c0.1,0.23,0,0.5-0.23,0.6
								c-0.19,0.09-0.42,0.03-0.54-0.13l-0.01-0.02c-0.27-0.34-0.67-0.6-1.1-0.66c-0.22-0.03-0.37-0.02-0.5,0.06
								c-0.14,0.08-0.25,0.25-0.31,0.44c-0.12,0.37,0.04,0.88,0.34,1.29c0.29,0.41,0.73,0.78,1.31,0.76
								c-0.55,0.24-1.21-0.05-1.65-0.45c-0.44-0.4-0.83-1.01-0.72-1.76c0.06-0.36,0.24-0.7,0.55-0.95c0.32-0.26,0.77-0.32,1.1-0.27
								c0.67,0.09,1.31,0.44,1.71,1l-0.79,0.45c-0.18-0.47-0.38-0.94-0.55-1.4c-0.18-0.45-0.37-0.88-0.64-1.19
								c-0.28-0.31-0.62-0.46-1.03-0.27C259.46,83.62,259.17,84.06,258.97,84.53z"/>
						</g>
						<g>
							<path class="st3" d="M294.94,84.53c-0.2-0.47-0.48-0.9-0.88-1.07c-0.4-0.19-0.75-0.03-1.03,0.27
								c-0.27,0.31-0.47,0.74-0.64,1.19c-0.17,0.46-0.37,0.93-0.55,1.4l-0.79-0.45c0.4-0.56,1.04-0.91,1.71-1
								c0.33-0.05,0.78,0.01,1.1,0.27c0.32,0.25,0.5,0.6,0.55,0.95c0.11,0.75-0.28,1.36-0.72,1.76c-0.44,0.4-1.1,0.69-1.65,0.45
								c0.58,0.02,1.01-0.36,1.31-0.76c0.31-0.41,0.46-0.92,0.34-1.29c-0.06-0.19-0.18-0.36-0.31-0.44
								c-0.13-0.08-0.28-0.09-0.5-0.06c-0.43,0.06-0.83,0.33-1.1,0.66l-0.01,0.02c-0.15,0.2-0.44,0.23-0.64,0.08
								c-0.17-0.13-0.22-0.36-0.14-0.54c0.21-0.46,0.39-0.92,0.61-1.39c0.23-0.47,0.48-0.97,0.95-1.36
								c0.23-0.19,0.51-0.36,0.84-0.39c0.33-0.04,0.65,0.07,0.89,0.25C294.77,83.46,294.93,84.03,294.94,84.53z"/>
						</g>
						<path class="st3" d="M283.22,84.11c0,1.23-0.53,2.22-1.18,2.22c-0.65,0-1.18-0.99-1.18-2.22c0-1.23,0.53-2.22,1.18-2.22
							C282.69,81.88,283.22,82.88,283.22,84.11z"/>
						<path class="st3" d="M271.5,84.11c0,1.23,0.53,2.22,1.18,2.22c0.65,0,1.18-0.99,1.18-2.22c0-1.23-0.53-2.22-1.18-2.22
							C272.03,81.88,271.5,82.88,271.5,84.11z"/>
					</g>
				</g>
				<path class="st3" d="M290.32,66.48c-0.42-3.92-5.33-8.92-9-9.83c-3.67-0.92-4.42,2.75-4.42,2.75c-1.6-1.6-3.45-2.99-5.52-3.47
					c0.65,1.96,0.14,4.17-2.29,5.35c-3.05,1.48-6.68,3.01-9.43,4.98c-7.78,5.58-5.65,9.98-4.99,10.97c1.88,2.79,3.77,4.88,3.77,4.88
					c1.75-1.79,3.88-0.12,3.88-0.12l2.46,2.42c1.71-1.67,1.08-11.21,1.08-11.21s13.87,3.58,16.92,1.96
					c3.04-1.62,1.46-4.17,1.46-4.17c1.88,0.62,3.42,2.92,4.29,7.33c0.88,4.42,1.7,4.73,1.7,4.73c1.59-1.52,2.86-1.86,3.65-1.78
					C301.32,74.27,290.32,66.48,290.32,66.48z"/>
			</g>
			<g>
				<g>
					<path class="st4" d="M258.19,67.12c0,0,1.3-10.56,3.25-13.15c1.94-2.59,18.21-4.61,22.46-1.66c4.25,2.95,6.54,14.3,6.54,14.3
						S271.62,57.1,258.19,67.12z"/>
					<path class="st4" d="M296.41,85.15c0.1-1-0.1-1.92-0.61-2.65c-0.47-0.66-2.01-1.07-2.21-1.24
						c3.32-10.63-1.86-14.47-13.19-15.61c-12.42-1.25-22.52,2.12-23.77,8.62c-1,5.22,1.38,7.12,2.09,7.57
						c-0.1,0.11-0.49,0.51-0.59,0.65c-0.55,0.72-0.72,1.68-0.6,2.7c-17.91-9.82,1.18-30.24,24.13-25.63
						C300.44,63.35,303.3,76.53,296.41,85.15z"/>
				</g>
				<g>
					<g>
						<path class="st3" d="M258.77,63.36c2.11-1.62,4.6-2.71,7.14-3.55c2.55-0.81,5.22-1.28,7.89-1.42c2.68-0.12,5.38,0.07,8,0.67
							c2.61,0.59,5.17,1.47,7.43,2.88c-1.22-0.52-2.47-0.95-3.74-1.28c-1.26-0.36-2.54-0.65-3.84-0.84c-2.58-0.41-5.2-0.56-7.8-0.42
							c-2.61,0.11-5.19,0.54-7.74,1.16c-1.27,0.32-2.52,0.72-3.75,1.19C261.14,62.18,259.94,62.72,258.77,63.36z"/>
					</g>
					<g>
						<path class="st3" d="M276.07,51.4c1.73,1.27,3.36,2.58,5.1,3.68c0.86,0.56,1.75,1.08,2.69,1.47c0.94,0.39,1.91,0.68,3,0.73
							c-1.02,0.38-2.19,0.3-3.25,0.01c-1.08-0.27-2.06-0.79-2.98-1.36c-0.91-0.59-1.76-1.27-2.52-2.03
							C277.34,53.13,276.63,52.32,276.07,51.4z"/>
					</g>
					<g>
						<path class="st3" d="M269.61,51.86c-0.29,0.99-0.8,1.9-1.4,2.73c-0.6,0.84-1.34,1.58-2.15,2.23
							c-0.82,0.64-1.75,1.16-2.74,1.49c-0.97,0.37-2.04,0.47-3.05,0.42c0.96-0.36,1.89-0.66,2.74-1.14
							c0.85-0.46,1.68-0.95,2.43-1.56C266.98,54.85,268.31,53.42,269.61,51.86z"/>
					</g>
				</g>
			</g>
		</g>
		<g>
			<g>
				<g>
					<path class="st9" d="M209.53,160.1c1.14-2.07,2.3-4.14,3.49-6.2c0.74-2.04,1.55-4.06,2.41-6.06
						c-12.49-17.32-26.15-36.38-26.15-36.38l-7.06,4.29c3.79,10.74,15.61,34.74,23.4,50.19C206.85,163.88,208.24,161.9,209.53,160.1
						z"/>
					<path class="st9" d="M183.05,117.99c0,0-9.96-8.26-9.69-9.12c0.27-0.86,3.42,1.13,3.42,1.13s-4.24-4.51-3.95-5.01
						c0.29-0.5,5.12,3.15,5.12,3.15s-3.76-5.83-3.37-6.23c0.4-0.4,5.08,4.12,5.08,4.12s-2.35-5.11-2.06-5.39s7.54,6.53,7.54,6.53
						s1.24-0.61,1.68-0.69c0.44-0.08,4.03,7.17,4.03,7.17L183.05,117.99z"/>
				</g>
				<g>
					<g>
						<rect x="177.04" y="85.76" class="st1" width="9.78" height="30.2"/>
						
							<rect x="172.54" y="84.83" transform="matrix(0.9581 -0.2863 0.2863 0.9581 -21.1804 54.978)" class="st1" width="9.78" height="30.2"/>
						<g>
							<g>
								<path class="st3" d="M184.23,105.98c-0.22,0-0.41-0.14-0.48-0.36L178,86.21c-0.08-0.27,0.07-0.54,0.34-0.62
									c0.27-0.08,0.54,0.07,0.62,0.34l5.75,19.42c0.08,0.27-0.07,0.54-0.34,0.62C184.33,105.97,184.28,105.98,184.23,105.98z"/>
							</g>
							<g>
								<path class="st3" d="M171.88,96.02c-0.21,0-0.4-0.13-0.47-0.34c-0.09-0.26,0.05-0.55,0.31-0.63l7.69-2.62
									c0.26-0.09,0.55,0.05,0.63,0.31c0.09,0.26-0.05,0.55-0.31,0.63L172.04,96C171.99,96.01,171.93,96.02,171.88,96.02z"/>
							</g>
							<g>
								<path class="st3" d="M179,114.9c-0.22,0-0.42-0.15-0.48-0.37l-4-15.12c-0.07-0.27,0.09-0.54,0.36-0.61
									c0.27-0.07,0.54,0.09,0.61,0.36l4,15.12c0.07,0.27-0.09,0.54-0.36,0.61C179.09,114.89,179.04,114.9,179,114.9z"/>
							</g>
							<g>
								<path class="st3" d="M180.88,114.34c-0.22,0-0.43-0.15-0.48-0.38c-2.76-11.18-2.76-11.35-2.76-11.43
									c0-0.28,0.22-0.5,0.5-0.5c0.26,0,0.47,0.19,0.5,0.45c0.08,0.46,1.68,6.96,2.74,11.25c0.07,0.27-0.1,0.54-0.37,0.61
									C180.96,114.33,180.92,114.34,180.88,114.34z M178.63,102.52L178.63,102.52L178.63,102.52z"/>
							</g>
						</g>
					</g>
					<path class="st9" d="M186.82,106.48c0,0-3.12-1.21-4-0.58s3.17,3.67,3.92,3.96c0,0-3,4.58,0.25,6.29l2.46-1.5L186.82,106.48z"
						/>
				</g>
			</g>
			<path class="st3" d="M248.39,124.21c0.03-4.29,1.01-8.55,3.09-12.31c1.54-2.79,3.73-5.42,6.72-6.26c7.17-2,34.88-2.25,45.71,4.58
				c10.83,6.83-0.5,71-3,71.67s-36.67,2.17-45.17-4.67C248.73,171.6,248.32,136.45,248.39,124.21z"/>
			<g>
				<rect x="270.8" y="100.57" class="st9" width="12.33" height="11.85"/>
				<path class="st3" d="M283.12,102.27v2.36c-1.87,0.87-3.96,1.36-6.16,1.36c-2.2,0-4.29-0.49-6.16-1.36v-2.36
					c1.87,0.87,3.96,1.36,6.16,1.36C279.16,103.64,281.25,103.14,283.12,102.27z"/>
			</g>
			<g>
				<path class="st9" d="M301.19,122c-2.49-8.65-16.76-12.89-22.33-14.23l-2.27-0.19c-5.72,0.39-20.5,2.19-24.39,10.3
					c-3.55,7.38-4.68,56.72-4.68,56.72l48.81,4.1C296.32,178.7,303.45,129.87,301.19,122z"/>
				<g>
					<g>
						<g>
							<path class="st10" d="M246.99,174.71l-1.62,3.99c-0.18,0.45,0.1,0.95,0.58,1.01c6.31,0.82,42.43,5.39,51.34,4.21
								c0.45-0.06,0.73-0.52,0.59-0.95l-1.35-4.34c-0.09-0.29-0.35-0.49-0.65-0.52l-48.15-3.85
								C247.41,174.23,247.11,174.41,246.99,174.71z"/>
							<path class="st2" d="M194.8,146.26c-0.2,0.3-0.25,0.66-0.13,1c0.36,1.01,1.14,3.15,1.39,3.47
								c0.29,0.36,11.14-9.39,13.93-11.91c0.39-0.35,0.48-0.91,0.23-1.37c-0.85-1.54-2.79-4.86-4-5.3
								C204.82,131.63,196.53,143.72,194.8,146.26z"/>
							<path class="st2" d="M349.4,125.4c-5.8-2.13-42.12-10.9-58.31-14.77c0.78-1.08,1-1.89,0.35-2.23
								c-3.38-1.75-8.31-2.53-8.31-2.53l-0.02,3.12l0.21-0.21l-4.55,6.36l-4.08,5.7l-4-12.62l0.11,0.02l-0.02-2.56
								c0,0-5.66-0.27-8.97,2.23c-0.62,0.46-0.55,1.33-0.04,2.43c-1.42,0.49-2.91,1.08-4.38,1.79c-0.24,0.1-0.47,0.22-0.71,0.34
								c-0.83,0.43-1.91,1.06-3.2,1.89c-9.06,5.81-27.95,20.83-35.25,35.72l-11.17-15.17l-11.83,12.33c0,0,14.16,32,21.16,33.67
								s32.17-36.17,32.17-36.17s-1,9.7-1.6,18.53c-0.14,2.05-0.26,4.06-0.34,5.88c-0.1,2.43-0.14,4.53-0.06,6.01
								c0,0,45.5,4.63,50.38,3.87c0,0,0.69-5.32,1.56-12.35c0.19-1.53,0.39-3.14,0.59-4.79c1.46-11.99,3.11-26.27,2.97-28.6
								l28.65,8.8l-11.53,4.2l10.13,13c0,0,43.09-9.58,44.58-16.21C375.74,134.9,356.9,128.15,349.4,125.4z"/>
							<path class="st2" d="M333.52,159.35c-0.34,0.22-2.56,0.73-3.61,0.97c-0.35,0.08-0.7-0.01-0.97-0.25
								c-0.34-0.29-0.85-0.74-1.49-1.31c-3.22-2.85-9.51-8.57-10.89-10.89c-0.24-0.4-0.34-0.69-0.25-0.86
								c0.59-1.14,4.12-2.67,5.75-3.32c0.48-0.2,1.03-0.03,1.33,0.39C325.55,147.16,333.92,159.11,333.52,159.35z"/>
						</g>
						<g>
							<g>
								<g>
									<path class="st3" d="M261.86,110.48c1.98,1.96,3.77,4.03,5.58,6.09l2.7,3.1c0.91,1.02,1.8,2.06,2.76,3.06
										c-2.4-1.43-4.39-3.44-6.22-5.5C264.88,115.13,263.21,112.92,261.86,110.48z"/>
								</g>
								<g>
									<path class="st3" d="M277.57,122.48c2.21-1.93,4.52-3.69,6.77-5.51c1.14-0.89,2.25-1.82,3.35-2.75
										c1.08-0.95,2.18-1.89,3.09-3.04c-0.58,1.36-1.54,2.54-2.55,3.6c-1.02,1.07-2.12,2.05-3.26,2.96
										C282.66,119.57,280.22,121.21,277.57,122.48z"/>
								</g>
							</g>
							<g>
								<path class="st3" d="M250.41,142.05c0.01,0.68-0.23,1.19-0.52,1.66c-0.32,0.45-0.71,0.86-1.35,1.09
									c-0.01-0.68,0.22-1.19,0.52-1.66C249.39,142.7,249.77,142.29,250.41,142.05z"/>
							</g>
							<g>
								<g>
									<path class="st3" d="M209.9,138.9c2.33,2.53,4.42,5.24,6.45,8c2,2.77,3.94,5.59,5.64,8.59c-2.33-2.53-4.42-5.24-6.45-8
										C213.54,144.71,211.59,141.89,209.9,138.9z"/>
								</g>
								<g>
									<path class="st3" d="M220.98,150.23c-0.5,0.37-0.97,0.43-1.45,0.42c-0.47-0.04-0.94-0.16-1.39-0.58
										c0.5-0.37,0.97-0.43,1.45-0.42C220.07,149.69,220.53,149.81,220.98,150.23z"/>
								</g>
								<g>
									<path class="st3" d="M196.69,150.31c1.79-2.06,3.78-3.89,5.82-5.67c2.06-1.75,4.17-3.45,6.47-4.91
										c-1.79,2.06-3.78,3.9-5.82,5.67C201.1,147.15,199,148.85,196.69,150.31z"/>
								</g>
								<g>
									<path class="st3" d="M207.07,133.27c-0.85,1.17-1.73,2.3-2.64,3.39c-0.89,1.11-1.84,2.19-2.67,3.3
										c-0.2,0.26-0.43,0.58-0.52,0.78c-0.01,0.02-0.01,0.03-0.01,0c0-0.02,0.01-0.06-0.03-0.16c-0.03-0.09-0.15-0.2-0.23-0.23
										c-0.18-0.05-0.15-0.01-0.16-0.02c0.01,0,0.03-0.01,0.06-0.02c0.14-0.07,0.28-0.12,0.43-0.2c0.59-0.3,1.16-0.71,1.74-1.12
										c1.13-0.84,2.26-1.72,3.4-2.6c-0.87,1.16-1.82,2.24-2.91,3.21c-0.54,0.49-1.11,0.94-1.77,1.34
										c-0.16,0.11-0.35,0.18-0.53,0.27c-0.05,0.02-0.11,0.04-0.19,0.06c-0.05,0.01-0.07,0.02-0.15,0.02l-0.1,0
										c-0.06-0.01-0.11-0.02-0.17-0.04c-0.12-0.04-0.28-0.19-0.32-0.32c-0.05-0.13-0.04-0.22-0.04-0.29
										c0.01-0.13,0.04-0.2,0.07-0.26c0.2-0.45,0.41-0.71,0.63-1.02c0.9-1.16,1.88-2.21,2.9-3.22
										C204.86,135.13,205.94,134.17,207.07,133.27z"/>
								</g>
								<g>
									<path class="st3" d="M195.15,148.06c0.83-0.99,1.83-1.73,2.86-2.4c1.05-0.65,2.14-1.23,3.39-1.56
										c-0.83,0.99-1.82,1.73-2.86,2.4C197.49,147.15,196.4,147.74,195.15,148.06z"/>
								</g>
							</g>
							<g>
								<g>
									<path class="st3" d="M330.63,142.21c3.54-1.26,7.16-2.18,10.81-2.97c1.83-0.38,3.67-0.73,5.52-1
										c1.85-0.28,3.73-0.47,5.6-0.46c-1.84,0.38-3.64,0.82-5.46,1.23l-5.46,1.21C338,140.98,334.35,141.72,330.63,142.21z"/>
								</g>
								<g>
									<path class="st3" d="M347.38,134.4c-1.78,1.12-3.6,2.06-5.37,3.06c-0.9,0.48-1.77,1.01-2.63,1.54
										c-0.85,0.55-1.69,1.11-2.38,1.9c0.33-1.02,1.11-1.85,1.91-2.53c0.81-0.69,1.69-1.27,2.61-1.79
										C343.36,135.59,345.31,134.79,347.38,134.4z"/>
								</g>
							</g>
							<g>
								<g>
									<path class="st3" d="M271.82,160.9c1.98-1.86,4.14-3.48,6.34-5.03c2.22-1.53,4.48-3,6.91-4.22
										c-1.98,1.87-4.14,3.48-6.34,5.03C276.51,158.21,274.25,159.68,271.82,160.9z"/>
								</g>
								<g>
									<path class="st3" d="M269.44,166.27c2.3-2.01,4.77-3.78,7.28-5.48c2.53-1.68,5.1-3.29,7.84-4.65
										c-2.3,2.02-4.77,3.78-7.28,5.48C274.75,163.3,272.18,164.91,269.44,166.27z"/>
								</g>
							</g>
							<g>
								<path class="st3" d="M246.75,175.21c4.17,0.2,8.33,0.5,12.49,0.81l12.47,1l12.45,1.11c2.07,0.2,4.15,0.37,6.23,0.54
									c2.08,0.17,4.15,0.37,6.24,0.36c-4.17,0.33-8.36,0.05-12.52-0.13c-4.17-0.22-8.33-0.56-12.49-0.88
									c-4.15-0.4-8.31-0.76-12.45-1.23C255.03,176.32,250.88,175.82,246.75,175.21z"/>
							</g>
							<g>
								<g>
									<g>
										<path class="st11" d="M270.9,119.48c-0.75,0.94-1.52,1.92-1.81,3.09c-0.33,1.33,0.01,2.74,0.53,4.01
											c0.52,1.27,1.23,2.46,1.67,3.76c0.89,2.57,0.68,5.5-0.55,7.93"/>
										<g>
											<path class="st0" d="M270.09,137.87c-0.19,0.37-0.05,0.82,0.32,1.02c0.37,0.19,0.82,0.05,1.02-0.32
												c0.19-0.37,0.05-0.82-0.32-1.02S270.28,137.5,270.09,137.87z"/>
										</g>
									</g>
								</g>
								<g>
									<g>
										<path class="st11" d="M279.59,118.91c1.2,3.33,2.4,6.72,2.71,10.25c0.28,3.24-0.2,6.5-0.74,9.71"/>
										<g>
											<path class="st0" d="M280.81,138.72c-0.06,0.41,0.22,0.79,0.64,0.85c0.41,0.06,0.79-0.22,0.85-0.64
												c0.06-0.41-0.22-0.79-0.64-0.85C281.25,138.03,280.87,138.31,280.81,138.72z"/>
										</g>
									</g>
								</g>
							</g>
							<g>
								<g>
									<path class="st3" d="M333.06,158.16c-1.85-2.01-3.45-4.19-4.99-6.41c-1.52-2.24-2.97-4.52-4.17-6.97
										c1.85,2.01,3.46,4.19,4.99,6.41C330.41,153.42,331.86,155.7,333.06,158.16z"/>
								</g>
								<g>
									<path class="st3" d="M317.77,146.12c1.06,0.97,2.09,1.97,3.08,3c1,1.01,1.97,2.07,2.98,3.02c0.24,0.23,0.53,0.49,0.72,0.6
										c0.02,0.01,0.03,0.01,0,0.01c-0.02,0-0.06-0.02-0.16,0.01c-0.09,0.02-0.22,0.12-0.25,0.2c-0.07,0.17-0.03,0.14-0.04,0.15
										c0-0.01,0-0.03-0.01-0.06c-0.05-0.15-0.08-0.29-0.15-0.45c-0.23-0.62-0.58-1.23-0.92-1.85c-0.71-1.22-1.46-2.43-2.21-3.67
										c1.05,0.99,2.02,2.06,2.87,3.24c0.43,0.59,0.81,1.21,1.14,1.91c0.09,0.17,0.14,0.37,0.21,0.56
										c0.02,0.05,0.03,0.12,0.04,0.2c0,0.05,0.01,0.08,0.01,0.15l-0.01,0.1c-0.01,0.05-0.03,0.11-0.06,0.16
										c-0.06,0.12-0.22,0.26-0.35,0.28c-0.14,0.04-0.22,0.02-0.29,0.01c-0.13-0.03-0.19-0.06-0.25-0.09
										c-0.43-0.25-0.66-0.49-0.95-0.74c-1.05-1.02-1.99-2.11-2.88-3.24C319.37,148.52,318.54,147.34,317.77,146.12z"/>
								</g>
								<g>
									<path class="st3" d="M330.66,159.44c-0.9-0.93-1.52-2-2.07-3.1c-0.53-1.11-0.99-2.26-1.17-3.54c0.9,0.93,1.52,2,2.07,3.1
										C330.01,157.01,330.47,158.16,330.66,159.44z"/>
								</g>
							</g>
						</g>
					</g>
					<g>
						<path class="st3" d="M257.4,111.86l-3.91,1.99l-2.59,1.32v25.33l2.59,3.48v12.76l-6.52,6.52c-0.14,2.05-0.26,4.06-0.34,5.88
							l10.2-10.2c0.17-0.17,0.28-0.36,0.37-0.57c0.03-0.06,0.06-0.13,0.09-0.2c0-0.02,0.01-0.04,0.02-0.06
							c0.01-0.03,0.01-0.05,0.02-0.08c0.03-0.1,0.04-0.21,0.06-0.32c0-0.04,0.01-0.08,0.01-0.12v-13.13l3.42-3.96v-30.38
							L257.4,111.86z"/>
						<path class="st0" d="M253.44,113.9c0.13,2.08,0.23,4.17,0.28,6.25c0.06,2.08,0.11,4.17,0.13,6.25c0.02,4.17,0,8.33-0.13,12.5
							l-0.11-0.28l2.9,3.22l-0.38,0c1.14-1.07,2.27-2.15,3.44-3.19c-1,1.21-2.03,2.38-3.06,3.56l-0.17,0.2l-0.2-0.2l-3.1-3.03
							l-0.11-0.11l0-0.17c-0.08-4.17-0.07-8.33,0-12.5c0.03-2.08,0.11-4.17,0.19-6.25C253.17,118.06,253.29,115.98,253.44,113.9z"/>
					</g>
					<g>
						<path class="st3" d="M294.79,145.84l4-3.7l3.25-29.08l-3.19-0.79l-3.82-0.94l-2.77-0.68l-3.33,30.39l2.07,3.56l-1.52,12.57
							c-0.02,0.11-0.02,0.22-0.01,0.34v0.04c0,0.02,0,0.04,0.01,0.05c0.03,0.48,0.24,0.95,0.62,1.31l8.41,7.76
							c0.19-1.53,0.39-3.14,0.59-4.79l-5.62-5.19L294.79,145.84z"/>
						<path class="st0" d="M299.94,113.4c-0.07,2.3-0.16,4.61-0.31,6.9c-0.13,2.3-0.28,4.6-0.47,6.89
							c-0.37,4.59-0.8,9.17-1.32,13.74l-0.02,0.17l-0.12,0.1l-3.71,2.89l-0.24,0.19l-0.14-0.25c-0.85-1.46-1.72-2.91-2.53-4.39
							c1.02,1.35,1.98,2.74,2.97,4.11l-0.38-0.06l3.54-3.11l-0.14,0.27c0.31-4.59,0.72-9.18,1.18-13.76
							c0.23-2.29,0.5-4.58,0.78-6.86C299.27,117.96,299.59,115.68,299.94,113.4z"/>
					</g>
				</g>
			</g>
			<g>
				<path class="st9" d="M327.45,158.76c-9.75,2.1-19.19,3.96-25.67,4.86c-0.74,1.4-2.32,4.34-3.73,6.76
					c-1.25,2.12-2.37,3.84-2.72,3.81c-0.86-0.08,0.28-3.26,0.38-3.56c-0.25,0.35-3.53,5.06-4.05,4.9c-0.53-0.17,1.86-5.36,1.99-5.66
					c-0.28,0.28-4.91,4.88-5.38,4.59c-0.46-0.3,2.76-5.52,2.95-5.83c-0.26,0.19-4.5,3.35-4.82,3.14c-0.34-0.22,4.79-8.74,4.79-8.74
					s-4.31-0.38-4.48-0.79c-0.17-0.4,9.1-5.84,9.6-6.13c0.01,0,0.02,0,0.03-0.01c0.2-0.08,1.06-0.43,2.45-0.99
					c0.36-0.15,0.75-0.31,1.18-0.48c3.62-1.48,9.6-3.91,16.59-6.76C317.94,150.19,324.23,155.91,327.45,158.76z"/>
				<path class="st9" d="M296.34,156.1c-0.01,0.01-0.02,0.01-0.03,0.01C296.32,156.09,296.33,156.09,296.34,156.1L296.34,156.1z"/>
			</g>
		</g>
	</g>
</g>
<g id="DESIGNED_BY_FREEPIK">
	<g id="XMLID_258_">
		<g id="XMLID_287_">
			<g id="XMLID_306_">
				<path id="XMLID_314_" class="st12" d="M260.1,465.47c-0.43,0.44-0.8,0.93-1.11,1.45l-0.46-0.24c-0.07-0.3-0.35-0.5-0.66-0.47
					c-0.33,0.04-0.57,0.34-0.53,0.67c0.04,0.33,0.34,0.57,0.67,0.53c0.07-0.01,0.13-0.03,0.18-0.05l0.45,0.23
					c-0.25,0.55-0.43,1.14-0.54,1.74l0.75,0.13c0.23-1.31,0.85-2.51,1.79-3.47L260.1,465.47z"/>
				<path id="XMLID_313_" class="st12" d="M265.59,463.16c-0.17,0-0.34,0.01-0.51,0.02l-0.07-0.63c0.19-0.15,0.3-0.39,0.27-0.64
					c-0.05-0.39-0.4-0.67-0.79-0.63c-0.39,0.05-0.67,0.4-0.63,0.8c0.03,0.25,0.19,0.46,0.4,0.56l0.07,0.62
					c-0.71,0.12-1.4,0.33-2.06,0.65l0.33,0.68c0.93-0.45,1.94-0.67,3-0.67c0.5,0,0.99,0.05,1.48,0.16l0.16-0.74
					C266.69,463.22,266.14,463.16,265.59,463.16z"/>
				<path id="XMLID_312_" class="st12" d="M272.19,465.71c0.33-0.04,0.57-0.34,0.53-0.67c-0.04-0.33-0.34-0.57-0.67-0.53
					c-0.31,0.04-0.54,0.3-0.53,0.61l-0.42,0.36c-0.42-0.43-0.89-0.81-1.41-1.14l-0.4,0.64c1.13,0.71,2.02,1.73,2.56,2.92l0.69-0.31
					c-0.25-0.55-0.57-1.07-0.94-1.54l0.4-0.35C272.07,465.72,272.13,465.72,272.19,465.71z"/>
				<path id="XMLID_311_" class="st12" d="M265.04,473.37c-0.39,0.02-0.78,0.04-1.16,0.04c-0.88,0-1.73-0.06-2.48-0.18
					c-0.39-0.06-0.85-0.15-1.27-0.29c1.05,1.86,3.07,3.12,5.39,3.12c2.86,0,5.26-1.92,5.95-4.5c-0.68,0.45-1.5,0.83-2.46,1.12
					C267.84,473.05,266.46,473.29,265.04,473.37z"/>
				<path id="XMLID_307_" class="st12" d="M265.59,464.68c-3.35,0-6.08,2.67-6.08,5.94c0,0.42,0.05,0.85,0.14,1.26
					c0.67,0.48,2.71,0.89,5.35,0.73c2.88-0.17,5.3-0.96,6.67-2.16c0-0.19-0.02-0.39-0.04-0.58
					C271.24,466.91,268.65,464.68,265.59,464.68z M263.43,471.19c-1.02,0-1.85-0.83-1.85-1.85c0-1.02,0.83-1.85,1.85-1.85
					c1.02,0,1.85,0.83,1.85,1.85C265.28,470.36,264.45,471.19,263.43,471.19z M268.17,470.29c-0.75,0-1.36-0.61-1.36-1.36
					s0.61-1.36,1.36-1.36s1.36,0.61,1.36,1.36S268.92,470.29,268.17,470.29z"/>
			</g>
			<path id="XMLID_304_" class="st12" d="M281.6,466.55c-0.3-0.12-0.81-0.31-1.38-0.24c-0.55,0.07-0.84,0.34-0.84,1.01v0.87h2.23
				v1.72h-2.23v5.46h-1.93v-5.46h-1.34v-1.72h1.34v-0.89c0-1.68,0.9-2.78,2.57-2.78c0.64,0,1.16,0.12,1.59,0.31V466.55z"/>
			<path id="XMLID_302_" class="st12" d="M286.3,469.88c-0.18-0.03-0.36-0.05-0.53-0.05c-0.9,0-1.51,0.55-1.51,1.61v3.91h-1.93
				v-7.17h1.87v0.78c0.45-0.67,1.14-0.98,2.02-0.98c0.41,0,0.85,0.13,1.09,0.34L286.3,469.88z"/>
			<path id="XMLID_299_" class="st12" d="M293.97,471.76c0,0.22-0.02,0.49-0.04,0.65h-5.08c0.21,1.04,0.93,1.49,1.84,1.49
				c0.62,0,1.29-0.25,1.81-0.69l1.13,1.24c-0.81,0.75-1.85,1.09-3.06,1.09c-2.2,0-3.72-1.5-3.72-3.75c0-2.26,1.48-3.8,3.63-3.8
				C292.54,467.99,293.96,469.52,293.97,471.76z M288.85,471.09h3.17c-0.18-0.92-0.73-1.44-1.56-1.44
				C289.55,469.65,289.02,470.2,288.85,471.09z"/>
			<path id="XMLID_296_" class="st12" d="M301.62,471.76c0,0.22-0.02,0.49-0.04,0.65h-5.09c0.21,1.04,0.93,1.49,1.84,1.49
				c0.62,0,1.3-0.25,1.81-0.69l1.13,1.24c-0.81,0.75-1.85,1.09-3.06,1.09c-2.2,0-3.72-1.5-3.72-3.75c0-2.26,1.48-3.8,3.63-3.8
				C300.2,467.99,301.61,469.52,301.62,471.76z M296.5,471.09h3.17c-0.18-0.92-0.73-1.44-1.56-1.44
				C297.21,469.65,296.67,470.2,296.5,471.09z"/>
			<path id="XMLID_293_" class="st12" d="M309.96,471.76c0,2.15-1.5,3.78-3.47,3.78c-0.96,0-1.64-0.38-2.11-0.93v3.71h-1.92v-10.13
				h1.89v0.79c0.47-0.58,1.15-0.98,2.14-0.98C308.47,467.99,309.96,469.61,309.96,471.76z M304.29,471.76
				c0,1.13,0.75,1.98,1.84,1.98c1.14,0,1.85-0.88,1.85-1.98c0-1.09-0.71-1.98-1.85-1.98C305.03,469.79,304.29,470.63,304.29,471.76z
				"/>
			<path id="XMLID_290_" class="st12" d="M313.07,465.84c0,0.7-0.54,1.23-1.24,1.23c-0.7,0-1.23-0.53-1.23-1.23
				c0-0.7,0.53-1.24,1.23-1.24C312.53,464.59,313.07,465.14,313.07,465.84z M312.81,475.35h-1.93v-7.17h1.93V475.35z"/>
			<path id="XMLID_288_" class="st12" d="M316.03,470.74l2.7-2.55h2.37l-3.48,3.38l3.5,3.8h-2.38l-2.72-2.9v2.9h-1.93V464.7h1.93
				V470.74z"/>
		</g>
		<g id="XMLID_259_">
			<path id="XMLID_284_" class="st12" d="M184.41,475.29v-1.05c-0.53,0.72-1.39,1.23-2.39,1.23c-1.85,0-3.15-1.41-3.15-3.71
				c0-2.26,1.29-3.72,3.15-3.72c0.95,0,1.82,0.47,2.39,1.25v-3.76h1.1v9.77H184.41z M184.41,473.37v-3.21
				c-0.4-0.62-1.24-1.14-2.12-1.14c-1.42,0-2.27,1.17-2.27,2.74c0,1.57,0.85,2.72,2.27,2.72
				C183.17,474.48,184.02,473.99,184.41,473.37z"/>
			<path id="XMLID_281_" class="st12" d="M186.93,471.74c0-2.05,1.46-3.71,3.49-3.71c2.14,0,3.4,1.67,3.4,3.79v0.28h-5.73
				c0.09,1.33,1.03,2.45,2.55,2.45c0.81,0,1.63-0.32,2.18-0.89l0.53,0.72c-0.7,0.7-1.65,1.08-2.81,1.08
				C188.44,475.47,186.93,473.96,186.93,471.74z M190.4,468.95c-1.51,0-2.26,1.27-2.31,2.36h4.64
				C192.72,470.25,192.01,468.95,190.4,468.95z"/>
			<path id="XMLID_279_" class="st12" d="M194.61,474.35l0.57-0.79c0.47,0.54,1.36,1.01,2.33,1.01c1.08,0,1.67-0.51,1.67-1.22
				c0-1.71-4.38-0.66-4.38-3.28c0-1.1,0.95-2.04,2.64-2.04c1.2,0,2.05,0.45,2.62,1.03l-0.51,0.76c-0.42-0.51-1.2-0.89-2.11-0.89
				c-0.97,0-1.57,0.48-1.57,1.11c0,1.55,4.38,0.53,4.38,3.28c0,1.19-0.95,2.14-2.78,2.14C196.31,475.47,195.32,475.11,194.61,474.35
				z"/>
			<path id="XMLID_276_" class="st12" d="M201.48,466.47c0-0.41,0.34-0.75,0.73-0.75c0.41,0,0.75,0.34,0.75,0.75
				c0,0.41-0.34,0.73-0.75,0.73C201.81,467.2,201.48,466.88,201.48,466.47z M201.67,475.29v-7.08h1.1v7.08H201.67z"/>
			<path id="XMLID_273_" class="st12" d="M204.58,477.11l0.56-0.82c0.59,0.7,1.29,0.97,2.3,0.97c1.17,0,2.27-0.57,2.27-2.12v-1.01
				c-0.51,0.72-1.38,1.26-2.37,1.26c-1.85,0-3.15-1.38-3.15-3.66c0-2.27,1.29-3.68,3.15-3.68c0.95,0,1.8,0.47,2.37,1.25v-1.07h1.1
				v6.87c0,2.34-1.64,3.08-3.37,3.08C206.24,478.16,205.42,477.93,204.58,477.11z M209.71,473.25v-3.09
				c-0.38-0.62-1.23-1.14-2.11-1.14c-1.42,0-2.27,1.13-2.27,2.7c0,1.55,0.85,2.7,2.27,2.7
				C208.48,474.41,209.33,473.87,209.71,473.25z"/>
			<path id="XMLID_271_" class="st12" d="M217.41,475.29v-4.63c0-1.25-0.63-1.64-1.58-1.64c-0.86,0-1.68,0.53-2.09,1.1v5.17h-1.1
				v-7.08h1.1v1.03c0.5-0.59,1.46-1.2,2.52-1.2c1.48,0,2.26,0.75,2.26,2.29v4.97H217.41z"/>
			<path id="XMLID_268_" class="st12" d="M219.93,471.74c0-2.05,1.46-3.71,3.49-3.71c2.14,0,3.4,1.67,3.4,3.79v0.28h-5.73
				c0.09,1.33,1.02,2.45,2.55,2.45c0.81,0,1.63-0.32,2.18-0.89l0.53,0.72c-0.7,0.7-1.66,1.08-2.81,1.08
				C221.44,475.47,219.93,473.96,219.93,471.74z M223.4,468.95c-1.51,0-2.26,1.27-2.31,2.36h4.64
				C225.72,470.25,225.02,468.95,223.4,468.95z"/>
			<path id="XMLID_265_" class="st12" d="M233.35,475.29v-1.05c-0.53,0.72-1.39,1.23-2.39,1.23c-1.85,0-3.15-1.41-3.15-3.71
				c0-2.26,1.29-3.72,3.15-3.72c0.95,0,1.82,0.47,2.39,1.25v-3.76h1.1v9.77H233.35z M233.35,473.37v-3.21
				c-0.4-0.62-1.25-1.14-2.12-1.14c-1.42,0-2.27,1.17-2.27,2.74c0,1.57,0.85,2.72,2.27,2.72
				C232.1,474.48,232.95,473.99,233.35,473.37z"/>
			<path id="XMLID_262_" class="st12" d="M239.69,475.29v-9.77h1.1v3.76c0.57-0.78,1.42-1.25,2.39-1.25c1.85,0,3.15,1.46,3.15,3.72
				c0,2.3-1.3,3.71-3.15,3.71c-1,0-1.86-0.51-2.39-1.23v1.05H239.69z M242.9,474.48c1.44,0,2.29-1.16,2.29-2.72
				c0-1.57-0.85-2.74-2.29-2.74c-0.86,0-1.73,0.53-2.11,1.14v3.21C241.17,473.99,242.04,474.48,242.9,474.48z"/>
			<path id="XMLID_260_" class="st12" d="M247.53,477.06c0.16,0.07,0.43,0.12,0.6,0.12c0.48,0,0.81-0.16,1.05-0.75l0.47-1.07
				l-2.96-7.15h1.19l2.36,5.8l2.34-5.8h1.2l-3.54,8.51c-0.42,1.02-1.14,1.42-2.08,1.44c-0.23,0-0.6-0.04-0.81-0.1L247.53,477.06z"/>
		</g>
	</g>
</g>
</svg>
